<?xml version="1.0" encoding="UTF-8" standalone="no"?>
<svg
   xmlns:dc="http://purl.org/dc/elements/1.1/"
   xmlns:cc="http://creativecommons.org/ns#"
   xmlns:rdf="http://www.w3.org/1999/02/22-rdf-syntax-ns#"
   xmlns:svg="http://www.w3.org/2000/svg"
   xmlns="http://www.w3.org/2000/svg"
   xmlns:sodipodi="http://sodipodi.sourceforge.net/DTD/sodipodi-0.dtd"
   xmlns:inkscape="http://www.inkscape.org/namespaces/inkscape"
   viewBox="0 0 32 32"
   version="1.1"
   id="svg18"
   sodipodi:docname="plus-circle.svg"
   inkscape:version="0.92.4 (5da689c313, 2019-01-14)">
  <metadata
     id="metadata22">
    <rdf:RDF>
      <cc:Work
         rdf:about="">
        <dc:format>image/svg+xml</dc:format>
        <dc:type
           rdf:resource="http://purl.org/dc/dcmitype/StillImage" />
      </cc:Work>
    </rdf:RDF>
  </metadata>
  <sodipodi:namedview
     pagecolor="#ffffff"
     bordercolor="#666666"
     borderopacity="1"
     objecttolerance="10"
     gridtolerance="10"
     guidetolerance="10"
     inkscape:pageopacity="0"
     inkscape:pageshadow="2"
     inkscape:window-width="1920"
     inkscape:window-height="992"
     id="namedview20"
     showgrid="false"
     inkscape:zoom="7.375"
     inkscape:cx="-52.61017"
     inkscape:cy="15.728814"
     inkscape:window-x="0"
     inkscape:window-y="0"
     inkscape:window-maximized="1"
     inkscape:current-layer="svg18" />
  <defs
     id="defs4">
    <style
       id="style2">.cls-1{fill:none;}</style>
  </defs>
  <title
     id="title6" />
  <g
     data-name="Layer 2"
     id="Layer_2">
    <path
       d="M16,29A13,13,0,1,1,29,16,13,13,0,0,1,16,29ZM16,5A11,11,0,1,0,27,16,11,11,0,0,0,16,5Z"
       id="path8" />
    <path
       d="M16,23a1,1,0,0,1-1-1V10a1,1,0,0,1,2,0V22A1,1,0,0,1,16,23Z"
       id="path10" />
    <path
       d="M22,17H10a1,1,0,0,1,0-2H22a1,1,0,0,1,0,2Z"
       id="path12" />
  </g>
  <g
     id="frame">
    <rect
       class="cls-1"
       height="32"
       width="32"
       id="rect15" />
  </g>
  <path
     style="stroke-width:0.13559322"
     d="M 13.466167,28.679852 C 10.832326,28.084301 8.8182637,27.003086 6.9679738,25.191406 3.1177629,21.421538 2.0365509,15.901661 4.1583372,10.847458 4.9443191,8.9752091 6.7657765,6.7240984 8.5016949,5.4795703 9.5083192,4.7578936 11.119297,3.9806088 12.463479,3.5680386 c 1.0876,-0.3338171 1.390453,-0.3661777 3.495843,-0.3735387 2.014076,-0.00704 2.440233,0.031085 3.375597,0.3020057 4.206429,1.2183554 7.479724,4.2784925 8.840192,8.2645144 0.248489,0.728049 0.522829,1.781353 0.609643,2.340675 0.194717,1.254527 0.0846,3.832663 -0.21139,4.949152 -1.227961,4.63195 -4.598508,8.100356 -9.165536,9.431641 -1.318917,0.384463 -4.628086,0.494384 -5.941661,0.197364 z m 5.272816,-1.988244 c 3.949266,-0.991219 7.049104,-4.158176 8.009704,-8.183133 0.386202,-1.618202 0.319459,-4.237011 -0.145141,-5.694916 C 24.521131,6.278981 17.375218,3.1350063 11.211984,6.0417614 7.0456076,8.0067425 4.4701024,12.650147 5.0279826,17.190961 5.8608895,23.970327 12.1682,28.340799 18.738983,26.691608 Z"
     id="path24"
     inkscape:connector-curvature="0" />
  <path
     style="stroke-width:0.13559322"
     d="M 13.466167,28.679852 C 8.2905025,27.509557 4.4176746,23.66834 3.3457931,18.642087 3.0384158,17.200736 3.0373345,14.774483 3.3434371,13.355932 4.1586203,9.5781825 6.7154125,6.2455314 10.128814,4.5115325 c 2.171841,-1.10329 3.924117,-1.4665567 6.539303,-1.3556715 2.601983,0.1103255 4.579353,0.7769278 6.744457,2.2736632 2.512686,1.7370186 4.268066,4.3116446 5.173109,7.5874248 0.385324,1.394674 0.354645,4.720057 -0.05746,6.228227 -1.22725,4.491341 -4.617044,7.924588 -9.120396,9.237312 -1.318917,0.384463 -4.628086,0.494384 -5.94166,0.197364 z m 4.671642,-1.844702 c 3.448798,-0.633985 6.687383,-3.306035 8.069609,-6.65797 0.79652,-1.931579 1.018639,-4.363776 0.588636,-6.445549 C 25.943216,9.6027801 22.819181,6.3553486 18.671186,5.2858418 17.184365,4.9024839 14.883989,4.90055 13.383051,5.2813961 9.4527338,6.2786694 6.3415363,9.3468502 5.2919995,13.260577 c -0.3630308,1.353744 -0.3968733,3.879628 -0.069842,5.212774 0.9990462,4.072618 4.0482123,7.173075 8.0930965,8.229232 1.169947,0.305485 3.529122,0.370336 4.822555,0.132567 z"
     id="path26"
     inkscape:connector-curvature="0" />
  <path
     style="stroke-width:0.13559322"
     d="M 15.349153,22.644068 C 15.096045,22.39096 15.077966,22.19209 15.077966,19.661017 v -2.711864 h -2.711864 c -2.5310738,0 -2.7299438,-0.01808 -2.9830512,-0.271187 -0.3486544,-0.348654 -0.3486544,-1.007278 0,-1.355932 0.2531074,-0.253107 0.4519774,-0.271187 2.9830512,-0.271187 h 2.711864 v -2.711864 c 0,-2.5310734 0.01808,-2.7299434 0.271187,-2.9830508 0.390171,-0.390172 1.002258,-0.351029 1.34609,0.086082 0.262335,0.3335039 0.281028,0.5319328 0.281028,2.9830518 v 2.625781 h 2.650231 c 2.633035,0 2.652391,0.0022 2.983051,0.33282 0.422321,0.42232 0.422321,0.810345 0,1.232665 -0.33066,0.33066 -0.350016,0.33282 -2.983051,0.33282 h -2.650231 v 2.625781 c 0,2.451118 -0.01869,2.649547 -0.281028,2.983051 -0.343832,0.437112 -0.955919,0.476255 -1.34609,0.08608 z"
     id="path28"
     inkscape:connector-curvature="0" />
  <path
     style="stroke-width:0.13559322"
     d="M 15.349153,22.644068 C 15.096045,22.39096 15.077966,22.19209 15.077966,19.661017 v -2.711864 h -2.711864 c -2.5310738,0 -2.7299438,-0.01808 -2.9830512,-0.271187 -0.3486544,-0.348654 -0.3486544,-1.007278 0,-1.355932 0.2531074,-0.253107 0.4519774,-0.271187 2.9830512,-0.271187 h 2.711864 v -2.711864 c 0,-2.5310734 0.01808,-2.7299434 0.271187,-2.9830508 0.390171,-0.390172 1.002258,-0.351029 1.34609,0.086082 0.262335,0.3335039 0.281028,0.5319328 0.281028,2.9830518 v 2.625781 h 2.650231 c 2.633035,0 2.652391,0.0022 2.983051,0.33282 0.422321,0.42232 0.422321,0.810345 0,1.232665 -0.33066,0.33066 -0.350016,0.33282 -2.983051,0.33282 h -2.650231 v 2.625781 c 0,2.451118 -0.01869,2.649547 -0.281028,2.983051 -0.343832,0.437112 -0.955919,0.476255 -1.34609,0.08608 z"
     id="path30"
     inkscape:connector-curvature="0" />
  <path
     style="stroke-width:0.13559322"
     d="M 15.349153,22.644068 C 15.096045,22.39096 15.077966,22.19209 15.077966,19.661017 v -2.711864 h -2.711864 c -2.5310738,0 -2.7299438,-0.01808 -2.9830512,-0.271187 -0.3486544,-0.348654 -0.3486544,-1.007278 0,-1.355932 0.2531074,-0.253107 0.4519774,-0.271187 2.9830512,-0.271187 h 2.711864 v -2.711864 c 0,-2.5310734 0.01808,-2.7299434 0.271187,-2.9830508 0.390171,-0.390172 1.002258,-0.351029 1.34609,0.086082 0.262335,0.3335039 0.281028,0.5319328 0.281028,2.9830518 v 2.625781 h 2.650231 c 2.633035,0 2.652391,0.0022 2.983051,0.33282 0.422321,0.42232 0.422321,0.810345 0,1.232665 -0.33066,0.33066 -0.350016,0.33282 -2.983051,0.33282 h -2.650231 v 2.625781 c 0,2.451118 -0.01869,2.649547 -0.281028,2.983051 -0.343832,0.437112 -0.955919,0.476255 -1.34609,0.08608 z"
     id="path32"
     inkscape:connector-curvature="0" />
  <path
     style="stroke-width:0.13559322"
     d="M 15.349153,22.644068 C 15.096045,22.39096 15.077966,22.19209 15.077966,19.661017 v -2.711864 h -2.711864 c -2.5310738,0 -2.7299438,-0.01808 -2.9830512,-0.271187 -0.3486544,-0.348654 -0.3486544,-1.007278 0,-1.355932 0.2531074,-0.253107 0.4519774,-0.271187 2.9830512,-0.271187 h 2.711864 v -2.711864 c 0,-2.5310734 0.01808,-2.7299434 0.271187,-2.9830508 0.390171,-0.390172 1.002258,-0.351029 1.34609,0.086082 0.262335,0.3335039 0.281028,0.5319328 0.281028,2.9830518 v 2.625781 h 2.650231 c 2.633035,0 2.652391,0.0022 2.983051,0.33282 0.422321,0.42232 0.422321,0.810345 0,1.232665 -0.33066,0.33066 -0.350016,0.33282 -2.983051,0.33282 h -2.650231 v 2.625781 c 0,2.451118 -0.01869,2.649547 -0.281028,2.983051 -0.343832,0.437112 -0.955919,0.476255 -1.34609,0.08608 z"
     id="path34"
     inkscape:connector-curvature="0" />
  <path
     style="stroke-width:0.13559322;fill:#ff9955"
     d="M 15.349153,22.644068 C 15.096045,22.39096 15.077966,22.19209 15.077966,19.661017 v -2.711864 h -2.711864 c -2.5310738,0 -2.7299438,-0.01808 -2.9830512,-0.271187 -0.3486544,-0.348654 -0.3486544,-1.007278 0,-1.355932 0.2531074,-0.253107 0.4519774,-0.271187 2.9830512,-0.271187 h 2.711864 v -2.711864 c 0,-2.5310734 0.01808,-2.7299434 0.271187,-2.9830508 0.390171,-0.390172 1.002258,-0.351029 1.34609,0.086082 0.262335,0.3335039 0.281028,0.5319328 0.281028,2.9830518 v 2.625781 h 2.625782 c 2.451118,0 2.649547,0.01869 2.983051,0.281028 0.480059,0.377615 0.480059,0.958634 0,1.336249 -0.333504,0.262334 -0.531933,0.281028 -2.983051,0.281028 h -2.625782 v 2.625781 c 0,2.451118 -0.01869,2.649547 -0.281028,2.983051 -0.343832,0.437112 -0.955919,0.476255 -1.34609,0.08608 z"
     id="path36"
     inkscape:connector-curvature="0" />
  <path
     style="fill:#927328;stroke-width:0.136;fill-opacity:1;stroke:#927328;stroke-opacity:1;stroke-miterlimit:4;stroke-dasharray:none;opacity:1"
     d="M 13.450847,28.675014 C 7.4338079,27.440278 3.1207727,22.181654 3.1106188,16.067797 3.1060797,13.334721 3.7368526,11.168943 5.1677996,9.0044034 7.2325051,5.8812014 10.363286,3.8201237 13.912413,3.247588 c 1.593183,-0.257008 4.216102,-0.1036521 5.680345,0.3321162 4.434106,1.3196203 7.766325,4.794806 8.983997,9.3694488 0.119104,0.447457 0.248722,1.606779 0.28804,2.576271 0.05809,1.432432 0.02134,2.004325 -0.196133,3.052207 -1.060406,5.109428 -5.093499,9.114902 -10.178895,10.109188 -1.221627,0.23885 -3.847418,0.232698 -5.03892,-0.01181 z m 5.100152,-1.957631 c 3.263815,-0.782521 5.91672,-2.940706 7.375042,-5.99973 0.849832,-1.782635 1.017459,-2.588998 1.008899,-4.853246 -0.007,-1.852739 -0.03281,-2.040374 -0.447607,-3.254238 C 25.915024,10.935345 25.171318,9.6976767 23.989881,8.4539306 22.318637,6.694546 20.221887,5.5425637 17.973433,5.1484145 16.594213,4.9066401 14.056597,5.0416881 12.840678,5.4215718 9.8395502,6.3591996 7.3309873,8.5527859 6.0151357,11.390095 5.2503683,13.039127 5.0106034,14.143896 5.0146609,16 c 0.00417,1.909543 0.3112648,3.206673 1.1716937,4.949153 1.4905574,3.018572 4.3903904,5.240775 7.6814674,5.886473 1.140478,0.223757 3.505819,0.164035 4.683177,-0.118243 z"
     id="path38"
     inkscape:connector-curvature="0" />
  <path
     style="fill:#927328;fill-opacity:1;stroke-width:0.13559322;stroke:#927328;stroke-opacity:1"
     d="M 15.348924,22.575996 C 15.232231,22.43539 15.158212,21.539228 15.109863,19.681648 l -0.07003,-2.690683 -2.711345,-0.0875 C 10.636717,16.848877 9.5476303,16.758289 9.4322978,16.662571 9.1908254,16.462167 9.1938405,15.535331 9.4366202,15.333841 9.5577268,15.233332 10.599702,15.1467 12.332803,15.093048 l 2.707021,-0.0838 0.07004,-2.690788 c 0.04835,-1.857661 0.122371,-2.7538473 0.239064,-2.8944535 0.24291,-0.2926888 0.995087,-0.256547 1.283051,0.06165 0.206511,0.2281916 0.250089,0.6331945 0.311443,2.8944415 l 0.07133,2.629126 2.658725,0.08402 c 2.645239,0.08359 2.660273,0.0858 2.96381,0.435153 0.167797,0.193124 0.305085,0.405346 0.305085,0.471605 0,0.06626 -0.137288,0.277381 -0.305085,0.469161 -0.302705,0.34597 -0.325824,0.349365 -2.963811,0.435183 l -2.658725,0.08649 -0.07134,2.629097 c -0.06135,2.26122 -0.104931,2.666221 -0.311442,2.894412 -0.287964,0.318197 -1.040141,0.35434 -1.283051,0.06165 z"
     id="path4549"
     inkscape:connector-curvature="0" />
</svg>
